<?xml version="1.0" encoding="UTF-8"?>
<svg id="Camada_1" xmlns="http://www.w3.org/2000/svg" version="1.1" viewBox="0 0 64 64">
  <!-- Generator: Adobe Illustrator 30.0.0, SVG Export Plug-In . SVG Version: 2.1.1 Build 123)  -->
  <path d="M17,23.4l-10.3,8.6,10.3,8.6c.9.7,1,2,.3,2.9s-2,1-2.9.3c0,0,0,0,0,0l-12.2-10.2c-.9-.7-1-2-.3-2.9,0,0,.2-.2.3-.3l12.2-10.2c.9-.7,2.1-.6,2.9.3.7.9.6,2.1-.3,2.9h0ZM61.8,30.4l-12.2-10.2c-.9-.7-2.1-.6-2.9.3s-.6,2.1.3,2.9l10.3,8.6-10.3,8.6c-.9.7-1,2-.3,2.9.7.9,2,1,2.9.3,0,0,0,0,0,0l12.2-10.2c.9-.7,1-2,.3-2.9,0,0-.2-.2-.3-.3h0ZM40.8,7.7c-1.1-.4-2.2.2-2.6,1.2h0s-16.3,44.8-16.3,44.8c-.4,1.1.2,2.2,1.2,2.6,0,0,0,0,0,0,.2,0,.5.1.7.1.9,0,1.6-.5,1.9-1.3L42.1,10.3c.4-1.1-.2-2.2-1.2-2.6,0,0,0,0,0,0Z" fill="#0fc"/>
</svg>